<?xml version="1.0" encoding="UTF-8"?>
<svg version="1.1" xmlns="http://www.w3.org/2000/svg" width="16" height="16">
<path d="M0 0 C7.4422658 -0.36601307 7.4422658 -0.36601307 10 1.3125 C11 3 11 3 11 6 C11.99 6 12.98 6 14 6 C14 7.98 14 9.96 14 12 C13.01 12 12.02 12 11 12 C11 12.66 11 13.32 11 14 C7.37 14 3.74 14 0 14 C0 9.38 0 4.76 0 0 Z " fill="#8D7A48" transform="translate(1,1)"/>
<path d="M0 0 C1.98 0 3.96 0 6 0 C6 0.99 6 1.98 6 3 C6.99 3 7.98 3 9 3 C9 3.66 9 4.32 9 5 C6.36 5 3.72 5 1 5 C1 6.98 1 8.96 1 11 C3.64 11 6.28 11 9 11 C9 11.33 9 11.66 9 12 C6.03 12 3.06 12 0 12 C0 8.04 0 4.08 0 0 Z " fill="#EBF0F9" transform="translate(2,2)"/>
<path d="M0 0 C1.98 0 3.96 0 6 0 C6 1.65 6 3.3 6 5 C2.37 5 -1.26 5 -5 5 C-5 4.67 -5 4.34 -5 4 C-3.35 4 -1.7 4 0 4 C0 2.68 0 1.36 0 0 Z " fill="#722222" transform="translate(9,8)"/>
<path d="M0 0 C0 0.99 0 1.98 0 3 C0.99 3 1.98 3 3 3 C3 3.66 3 4.32 3 5 C0.36 4.67 -2.28 4.34 -5 4 C-5 3.01 -5 2.02 -5 1 C-2 0 -2 0 0 0 Z " fill="#D7DEEA" transform="translate(8,2)"/>
<path d="M0 0 C1.65 0 3.3 0 5 0 C5 1.32 5 2.64 5 4 C3.35 4 1.7 4 0 4 C0 2.68 0 1.36 0 0 Z " fill="#12C000" transform="translate(4,8)"/>
</svg>
